<?xml version="1.0" standalone="no"?><!DOCTYPE svg PUBLIC "-//W3C//DTD SVG 1.1//EN" "http://www.w3.org/Graphics/SVG/1.1/DTD/svg11.dtd"><svg t="1562677547122" class="icon" viewBox="0 0 1024 1024" version="1.1" xmlns="http://www.w3.org/2000/svg" p-id="1131" xmlns:xlink="http://www.w3.org/1999/xlink" width="200" height="200"><defs><style type="text/css"></style></defs><path d="M1020.14942288-40.33632922H3.85057712c-24.44088257 0-44.18690634 19.74602377-44.18690634 44.18690634v1016.29884576c0 24.44088257 19.74602377 44.18690634 44.18690634 44.18690634h1016.29884576c24.44088257 0 44.18690634-19.74602377 44.18690634-44.18690634V3.85057712c0-24.44088257-19.74602377-44.18690634-44.18690634-44.18690634z m-55.23363292 1005.25211918H59.08421004V59.08421004h905.83157992v905.83157992z" fill="#ffffff" p-id="1132"></path><path d="M473.33645695 310.39723984h77.3270861c6.07569962 0 11.04672658-4.97102697 11.04672658-11.04672659v-77.32708608c0-6.07569962-4.97102697-11.04672658-11.04672658-11.04672658h-77.3270861c-6.07569962 0-11.04672658 4.97102697-11.04672658 11.04672658v77.32708608c0 6.07569962 4.97102697 11.04672658 11.04672658 11.04672659zM222.02342717 561.71026963h77.32708608c6.07569962 0 11.04672658-4.97102697 11.04672659-11.04672658v-77.3270861c0-6.07569962-4.97102697-11.04672658-11.04672659-11.04672658h-77.32708608c-6.07569962 0-11.04672658 4.97102697-11.04672658 11.04672658v77.3270861c0 6.07569962 4.97102697 11.04672658 11.04672658 11.04672658zM724.64948675 561.71026963h77.32708608c6.07569962 0 11.04672658-4.97102697 11.04672658-11.04672658v-77.3270861c0-6.07569962-4.97102697-11.04672658-11.04672658-11.04672658h-77.32708608c-6.07569962 0-11.04672658 4.97102697-11.04672659 11.04672658v77.3270861c0 6.07569962 4.97102697 11.04672658 11.04672659 11.04672658zM473.33645695 561.71026963h77.3270861c6.07569962 0 11.04672658-4.97102697 11.04672658-11.04672658v-77.3270861c0-6.07569962-4.97102697-11.04672658-11.04672658-11.04672658h-77.3270861c-6.07569962 0-11.04672658 4.97102697-11.04672658 11.04672658v77.3270861c0 6.07569962 4.97102697 11.04672658 11.04672658 11.04672658zM473.33645695 813.02329941h77.3270861c6.07569962 0 11.04672658-4.97102697 11.04672658-11.04672658v-77.32708608c0-6.07569962-4.97102697-11.04672658-11.04672658-11.04672659h-77.3270861c-6.07569962 0-11.04672658 4.97102697-11.04672658 11.04672659v77.32708608c0 6.07569962 4.97102697 11.04672658 11.04672658 11.04672658z" fill="#ffffff" p-id="1133"></path></svg>