<svg viewBox="0 0 1024 1024" version="1.1" xmlns="http://www.w3.org/2000/svg" width="200" height="200"><path d="M598.016 361.984q25.984 0 45.013333 18.986667t18.986667 45.013333-18.986667 45.013333-45.013333 18.986667-45.013333-18.986667-18.986667-45.013333 18.986667-45.013333 45.013333-18.986667zM598.016 534.016q25.984 0 45.013333 18.986667t18.986667 45.013333-18.986667 45.013333-45.013333 18.986667-45.013333-18.986667-18.986667-45.013333 18.986667-45.013333 45.013333-18.986667zM425.984 726.016q18.005333 0 31.018667 11.989333t13.013333 29.994667-13.013333 29.994667-31.018667 11.989333-29.994667-11.989333-11.989333-29.994667 11.989333-29.994667 29.994667-11.989333zM425.984 361.984q25.984 0 45.013333 18.986667t18.986667 45.013333-18.986667 45.013333-45.013333 18.986667-45.013333-18.986667-18.986667-45.013333 18.986667-45.013333 45.013333-18.986667zM598.016 873.984q20.010667 0 20.010667 22.016t-20.010667 22.016q-22.016 0-22.016-22.016t22.016-22.016zM598.016 726.016q18.005333 0 29.994667 11.989333t11.989333 29.994667-11.989333 29.994667-29.994667 11.989333-31.018667-11.989333-13.013333-29.994667 13.013333-29.994667 31.018667-11.989333zM896 576q22.016 0 22.016 22.016 0 20.010667-22.016 20.010667t-22.016-20.010667q0-22.016 22.016-22.016zM768 214.016q18.005333 0 29.994667 11.989333t11.989333 29.994667-11.989333 29.994667-29.994667 11.989333-29.994667-11.989333-11.989333-29.994667 11.989333-29.994667 29.994667-11.989333zM768 384q18.005333 0 29.994667 11.989333t11.989333 29.994667-11.989333 31.018667-29.994667 13.013333-29.994667-13.013333-11.989333-31.018667 11.989333-29.994667 29.994667-11.989333zM768 726.016q18.005333 0 29.994667 11.989333t11.989333 29.994667-11.989333 29.994667-29.994667 11.989333-29.994667-11.989333-11.989333-29.994667 11.989333-29.994667 29.994667-11.989333zM768 553.984q18.005333 0 29.994667 13.013333t11.989333 31.018667-11.989333 29.994667-29.994667 11.989333-29.994667-11.989333-11.989333-29.994667 11.989333-31.018667 29.994667-13.013333zM425.984 534.016q25.984 0 45.013333 18.986667t18.986667 45.013333-18.986667 45.013333-45.013333 18.986667-45.013333-18.986667-18.986667-45.013333 18.986667-45.013333 45.013333-18.986667zM425.984 297.984q-18.005333 0-29.994667-11.989333t-11.989333-29.994667 11.989333-29.994667 29.994667-11.989333 31.018667 11.989333 13.013333 29.994667-13.013333 29.994667-31.018667 11.989333zM425.984 150.016q-20.010667 0-20.010667-22.016t20.010667-22.016q22.016 0 22.016 22.016t-22.016 22.016zM425.984 873.984q22.016 0 22.016 22.016t-22.016 22.016q-20.010667 0-20.010667-22.016t20.010667-22.016zM128 576q22.016 0 22.016 22.016 0 20.010667-22.016 20.010667t-22.016-20.010667q0-22.016 22.016-22.016zM598.016 150.016q-22.016 0-22.016-22.016t22.016-22.016q20.010667 0 20.010667 22.016t-20.010667 22.016zM598.016 297.984q-18.005333 0-31.018667-11.989333t-13.013333-29.994667 13.013333-29.994667 31.018667-11.989333 29.994667 11.989333 11.989333 29.994667-11.989333 29.994667-29.994667 11.989333zM896 448q-22.016 0-22.016-22.016 0-20.010667 22.016-20.010667t22.016 20.010667q0 22.016-22.016 22.016zM256 214.016q18.005333 0 29.994667 11.989333t11.989333 29.994667-11.989333 29.994667-29.994667 11.989333-29.994667-11.989333-11.989333-29.994667 11.989333-29.994667 29.994667-11.989333zM128 406.016q22.016 0 22.016 20.010667 0 22.016-22.016 22.016t-22.016-22.016q0-20.010667 22.016-20.010667zM256 384q18.005333 0 29.994667 11.989333t11.989333 29.994667-11.989333 31.018667-29.994667 13.013333-29.994667-13.013333-11.989333-31.018667 11.989333-29.994667 29.994667-11.989333zM256 726.016q18.005333 0 29.994667 11.989333t11.989333 29.994667-11.989333 29.994667-29.994667 11.989333-29.994667-11.989333-11.989333-29.994667 11.989333-29.994667 29.994667-11.989333zM256 553.984q18.005333 0 29.994667 13.013333t11.989333 31.018667-11.989333 29.994667-29.994667 11.989333-29.994667-11.989333-11.989333-29.994667 11.989333-31.018667 29.994667-13.013333z"  fill="#ffffff"></path></svg>
