<svg width="21" height="17" viewBox="0 0 21 17" version="1.1" xmlns="http://www.w3.org/2000/svg">
  <path d="M7.057923,6.94048365 C7.04979017,6.90724028 7.03471462,6.87699953 7.01408497,6.85190615 L4.23205608,1.83580276 L3.7688805,1 L3.30530819,1.83558828 L0.506021801,6.88386268 C0.49907913,6.8965166 0.493524987,6.90938501 0.489161015,6.92289683 C0.169202902,7.53478935 0,8.2260371 0,8.92500579 C0,11.1720434 1.69064045,13 3.76907885,13 C5.84712054,13 7.53795938,11.1720434 7.53795938,8.92500579 C7.53795938,8.23268578 7.37212861,7.54808671 7.057923,6.94048365 L7.057923,6.94048365 Z"></path>
  <path d="M14.296,10.288 L8.944,10.288 L7.408,14.152 C7.3279996,14.344001 7.288,14.5039994 7.288,14.632 C7.288,14.9680017 7.77599512,15.2079993 8.752,15.352 C8.86400056,15.3680001 8.9399998,15.4119996 8.98,15.484 C9.0200002,15.5560004 9.04,15.6399995 9.04,15.736 C9.04,15.8320005 9.02400016,15.9599992 8.992,16.12 C8.55999784,16.0879998 8.1040024,16.0600001 7.624,16.036 C7.1439976,16.0119999 6.67200232,16 6.208,16 C5.8879984,16 5.56000168,16.0079999 5.224,16.024 C4.88799832,16.0400001 4.53600184,16.0719998 4.168,16.12 C4.13599984,15.9919994 4.12,15.8640006 4.12,15.736 C4.12,15.6239994 4.1399998,15.5280004 4.18,15.448 C4.2200002,15.3679996 4.30399936,15.3200001 4.432,15.304 C4.92800248,15.2239996 5.29999876,15.1240006 5.548,15.004 C5.79600124,14.8839994 5.97599944,14.6960013 6.088,14.44 L11.872,0.52 C11.9840006,0.24799864 12.135999,0.112 12.328,0.112 C12.3920003,0.112 12.4879994,0.12799984 12.616,0.16 L18.424,14.512 C18.5200005,14.7360011 18.7359983,14.9119994 19.072,15.04 C19.4080017,15.1680006 19.7359984,15.2559998 20.056,15.304 C20.1520005,15.3360002 20.2279997,15.3799997 20.284,15.436 C20.3400003,15.4920003 20.368,15.5919993 20.368,15.736 C20.368,15.8320005 20.3520002,15.9599992 20.32,16.12 C19.8079974,16.0879998 19.3040025,16.0600001 18.808,16.036 C18.3119975,16.0119999 17.8480022,16 17.416,16 C16.9679978,16 16.4560029,16.0119999 15.88,16.036 C15.3039971,16.0600001 14.7840023,16.0879998 14.32,16.12 C14.2879998,15.9599992 14.272,15.8320005 14.272,15.736 C14.272,15.5919993 14.2999997,15.4920003 14.356,15.436 C14.4120003,15.3799997 14.4639998,15.352 14.512,15.352 C14.9280021,15.2719996 15.2639987,15.1800005 15.52,15.076 C15.7760013,14.9719995 15.904,14.816001 15.904,14.608 C15.904,14.5119995 15.8720003,14.3920007 15.808,14.248 L14.296,10.288 Z M13.912,9.304 L11.68,3.424 L9.352,9.304 L13.912,9.304 Z"></path>
</svg>
