<svg width="34" height="20" viewBox="0 0 34 20" version="1.1" xmlns="http://www.w3.org/2000/svg">
    <g fill="#4A4A4A" fill-rule="evenodd">
        <path d="M28,3 L28,17 L6,17 L6,3 L28,3 Z M10.6221729,13.9997445 C10.5839635,14.0888999 10.5584905,14.1907918 10.5584905,14.2799471 C10.5584905,14.3945754 10.5839635,14.5092038 10.6476459,14.6110956 C10.7622742,14.8021428 10.9660579,14.9167712 11.1825781,14.9167712 L22.518046,14.9167712 C22.7345662,14.9167712 22.9383499,14.8021428 23.0529782,14.6110956 C23.1166606,14.5092038 23.1421336,14.3945754 23.1421336,14.2799471 C23.1421336,14.1780553 23.1166606,14.0888999 23.0784512,13.9997445 L19.2702434,6.38332901 C19.1683516,6.17954532 18.9645679,6.05218051 18.7480477,6.03944403 L18.7098383,6.03944403 C18.4933181,6.03944403 18.3022709,6.14133587 18.1749061,6.3196466 L15.2455155,11.0066715 L14.1501781,9.18535479 C14.0355498,9.07072646 13.8699756,8.99430758 13.7044013,8.99430758 C13.6661919,8.99430758 13.6407189,8.99430758 13.6025095,9.00704406 C13.3987258,9.0452535 13.2331515,9.17261831 13.1312597,9.35092904 L10.6221729,13.9997445 L10.6221729,13.9997445 L10.6221729,13.9997445 Z M13.9279567,6.11938052 C13.9279567,5.20788931 13.1811928,4.46112543 12.2697016,4.46112543 C11.3582104,4.46112543 10.6114465,5.20788931 10.6114465,6.11938052 C10.6114465,7.03087172 11.3582104,7.7776356 12.2697016,7.7776356 C13.1811928,7.7776356 13.9279567,7.04185354 13.9279567,6.11938052 L13.9279567,6.11938052 L13.9279567,6.11938052 Z"></path>
        <path d="M0,0 L34,0 L34,20 L0,20 L0,0 Z M2,2 L32,2 L32,18 L2,18 L2,2 Z" opacity="0.6"></path>
    </g>
</svg>