<svg width="34" height="23" viewBox="0 0 34 23" version="1.1" xmlns="http://www.w3.org/2000/svg">
    <g fill="#4A4A4A" fill-rule="evenodd">
        <path d="M31,3 L31,23 L3,23 L3,3 L31,3 Z M8.46071454,19.1879428 C8.40310965,19.3223542 8.36470639,19.4759672 8.36470639,19.6103786 C8.36470639,19.7831933 8.40310965,19.956008 8.49911781,20.1096211 C8.67193249,20.3976455 8.97915858,20.5704602 9.30558631,20.5704602 L26.3950378,20.5704602 C26.7214656,20.5704602 27.0286916,20.3976455 27.2015063,20.1096211 C27.2975145,19.956008 27.3359177,19.7831933 27.3359177,19.6103786 C27.3359177,19.4567656 27.2975145,19.3223542 27.2399096,19.1879428 L21.4986219,7.70536748 C21.3450089,7.39814138 21.0377828,7.20612507 20.7113551,7.18692344 L20.6537502,7.18692344 C20.3273225,7.18692344 20.039298,7.34053649 19.8472817,7.60935932 L15.4309066,14.6755595 L13.7795663,11.9297263 C13.6067516,11.7569116 13.3571304,11.6417018 13.1075092,11.6417018 C13.0499043,11.6417018 13.0115011,11.6417018 12.9538962,11.6609034 C12.6466701,11.7185083 12.3970489,11.9105246 12.2434358,12.1793475 L8.46071454,19.1879428 L8.46071454,19.1879428 L8.46071454,19.1879428 Z M13.4445433,7.3074364 C13.4445433,5.93326421 12.3187155,4.8074364 10.9445433,4.8074364 C9.57037111,4.8074364 8.4445433,5.93326421 8.4445433,7.3074364 C8.4445433,8.68160858 9.57037111,9.8074364 10.9445433,9.8074364 C12.3187155,9.8074364 13.4445433,8.69816488 13.4445433,7.3074364 L13.4445433,7.3074364 L13.4445433,7.3074364 Z"></path>
        <path d="M0,0 L34,0 L34,20 L0,20 L0,0 Z M2,2 L32,2 L32,18 L2,18 L2,2 Z" fill-opacity="0.6"></path>
    </g>
</svg>