<svg viewBox="0 0 1024 1024" version="1.1" xmlns="http://www.w3.org/2000/svg" width="1024" height="1024">
  <path d="M881.2544 1004.3392c-50.9952 0-92.3648-41.3696-92.3648-92.3648 0-50.9952 92.3648-215.6544 92.3648-215.6544s92.3648 164.6592 92.3648 215.6544S932.4544 1004.3392 881.2544 1004.3392L881.2544 1004.3392zM50.3808 546.6112 449.9456 151.552l399.7696 395.264-399.7696 395.264L50.3808 546.6112 50.3808 546.6112zM449.9456 239.2064l-277.0944 272.384 554.3936 0L449.9456 239.2064 449.9456 239.2064zM272.384 63.488l44.4416-43.8272L449.9456 151.552 405.504 195.3792 272.384 63.488 272.384 63.488zM272.384 63.488"></path>
</svg>
