<svg width="29" height="18" viewBox="0 0 29 18" version="1.1" xmlns="http://www.w3.org/2000/svg">
  <path d="M16.2109375,16.4257812 L16.0234375,17.1171875 C15.6171855,17.0859373 15.2109395,17.0625001 14.8046875,17.046875 C14.1640593,17.0156248 13.5546904,17 12.9765625,17 C12.0078077,17 10.6953208,17.0390621 9.0390625,17.1171875 L9.1796875,16.4257812 C10.5546944,16.1445298 11.3320304,15.8398454 11.5117188,15.5117188 C11.6132818,15.3476554 11.7187495,14.8750039 11.828125,14.09375 C11.9375005,13.3124961 12.0156248,12.6093781 12.0625,11.984375 C11.1406204,11.9531248 9.99610059,11.9375 8.62890625,11.9375 C8.0195282,11.9375 7.50781457,11.9531248 7.09375,11.984375 C6.99999953,12.1093756 6.93164084,12.1992185 6.88867187,12.2539062 C6.84570291,12.308594 6.78515664,12.3867182 6.70703125,12.4882812 C6.54296793,12.7070323 6.18554963,13.1914025 5.63476562,13.9414062 C5.08398162,14.69141 4.79687512,15.0859373 4.7734375,15.125 C4.51562371,15.4453141 4.38671875,15.6796868 4.38671875,15.828125 C4.38671875,15.9453131 4.4414057,16.0351559 4.55078125,16.0976562 C4.6601568,16.1601566 4.98827852,16.2460932 5.53515625,16.3554688 C5.76953242,16.402344 5.89062496,16.4257812 5.8984375,16.4257812 L5.69921875,17.1171875 C5.4492175,17.1015624 5.02734672,17.0781252 4.43359375,17.046875 C3.8242157,17.0156248 3.32812691,17 2.9453125,17 C2.42968492,17 1.53516262,17.0390621 0.26171875,17.1171875 L0.47265625,16.4257812 C1.2617227,16.2851555 1.80663912,16.1230478 2.10742188,15.9394531 C2.40820463,15.7558585 2.81640367,15.3320346 3.33203125,14.6679688 C3.42578172,14.5351556 3.63085779,14.2675801 3.94726562,13.8652344 C4.26367346,13.4628886 4.54882686,13.0976579 4.80273437,12.7695312 C5.05664189,12.4414046 5.29296766,12.1406264 5.51171875,11.8671875 L7.0703125,9.8984375 C7.80469117,8.97655789 8.34179518,8.3007834 8.68164062,7.87109375 C9.02148607,7.4414041 9.37695127,6.98633053 9.74804688,6.50585938 C10.1191425,6.02538822 10.6230437,5.35742615 11.2597656,4.50195312 C11.8964876,3.6464801 12.7578071,2.48438234 13.84375,1.015625 C13.8984378,0.960937227 13.976562,0.863281953 14.078125,0.72265625 C14.179688,0.582030547 14.2460936,0.488281484 14.2773437,0.44140625 L15.0625,0.44140625 C15.0546875,0.566406875 15.0175785,0.98241834 14.9511719,1.68945312 C14.8847653,2.39648791 14.8281252,3.00390371 14.78125,3.51171875 C14.7265622,3.98828363 14.6640629,4.57421527 14.59375,5.26953125 C14.5234371,5.96484723 14.4687502,6.55663818 14.4296875,7.04492188 C14.3906248,7.53320557 14.3417972,8.17577727 14.2832031,8.97265625 C14.2246091,9.76953523 14.1406255,10.8710867 14.03125,12.2773438 C13.9218745,14.0429776 13.8671875,15.05078 13.8671875,15.3007812 C13.8671875,15.4726571 13.9023434,15.6074214 13.9726562,15.7050781 C14.0429691,15.8027349 14.2324203,15.9062495 14.5410156,16.015625 C14.8496109,16.1250005 15.2968721,16.2382807 15.8828125,16.3554688 C16.1171887,16.402344 16.2265626,16.4257812 16.2109375,16.4257812 L16.2109375,16.4257812 Z M7.9140625,10.859375 L12.1796875,10.859375 L12.90625,4.1796875 L12.859375,4.1328125 L7.9140625,10.859375 Z M27.6132812,14.140625 L28,14.6445312 C27.5312477,15.1132836 27.0175809,15.5624979 26.4589844,15.9921875 C25.9003878,16.4218771 25.4062521,16.7539051 24.9765625,16.9882812 C24.5468729,17.2226574 24.2421884,17.3398438 24.0625,17.3398438 C23.6953107,17.3398438 23.5117188,17.1132835 23.5117188,16.6601562 C23.5117188,16.4414052 23.5761712,16.0800806 23.7050781,15.5761719 C23.833985,15.0722631 23.9218748,14.7851566 23.96875,14.7148438 C24.0390629,14.4335923 24.1171871,14.1640638 24.203125,13.90625 L24.15625,13.859375 C23.4999967,14.6953167 22.7656291,15.4843713 21.953125,16.2265625 C21.1406209,16.9687537 20.4023471,17.3398438 19.7382812,17.3398438 C19.2148411,17.3398438 18.7617207,17.0839869 18.3789062,16.5722656 C17.9960918,16.0605443 17.8046875,15.3164111 17.8046875,14.3398438 C17.8046875,13.3398388 18.0136698,12.3476612 18.4316406,11.3632812 C18.8496115,10.3789013 19.4257776,9.49219145 20.1601562,8.703125 C20.8945349,7.91405855 21.7421827,7.28320549 22.703125,6.81054688 C23.6640673,6.33788826 24.6757759,6.1015625 25.7382812,6.1015625 C25.8632819,6.1015625 26.2441374,6.14062461 26.8808594,6.21875 C27.5175813,6.29687539 27.882812,6.33984371 27.9765625,6.34765625 L28.1171875,6.62890625 C27.6640602,7.56641094 27.2382832,8.63671273 26.8398438,9.83984375 C26.4414043,11.0429748 26.1230481,12.1249952 25.8847656,13.0859375 C25.6464832,14.0468798 25.5273438,14.6171866 25.5273438,14.796875 C25.5273438,15.1171891 25.624999,15.2773438 25.8203125,15.2773438 C26.0703138,15.2773438 26.5820274,14.9726593 27.3554688,14.3632812 C27.4804694,14.2382806 27.566406,14.1640626 27.6132812,14.140625 L27.6132812,14.140625 Z M25.9140625,7.42578125 C25.312497,7.23046777 24.8398455,7.1328125 24.4960938,7.1328125 C23.8554655,7.1328125 23.2460966,7.33007615 22.6679688,7.72460938 C22.0898409,8.1191426 21.5781272,8.6542935 21.1328125,9.33007812 C20.6874978,10.0058628 20.3359388,10.7617146 20.078125,11.5976562 C19.8203112,12.4335979 19.6914062,13.2578084 19.6914062,14.0703125 C19.6914062,14.6875031 19.7949208,15.1425767 20.0019531,15.4355469 C20.2089854,15.7285171 20.4179677,15.875 20.6289062,15.875 C20.9335953,15.875 21.4003875,15.6171901 22.0292969,15.1015625 C22.6582063,14.5859349 23.2421848,13.9218791 23.78125,13.109375 C24.1328143,12.60156 24.4257801,12.0332063 24.6601562,11.4042969 C24.8945324,10.7753875 25.2304666,9.710945 25.6679688,8.2109375 C25.6835938,8.1718748 25.724609,8.04687605 25.7910156,7.8359375 C25.8574222,7.62499895 25.8984374,7.48828156 25.9140625,7.42578125 L25.9140625,7.42578125 Z"></path>
</svg>
