<svg width="30" height="17" viewBox="0 0 30 17" version="1.1" xmlns="http://www.w3.org/2000/svg">
    <path d="M10.296,10.288 L4.944,10.288 L3.408,14.152 C3.3279996,14.344001 3.288,14.5039994 3.288,14.632 C3.288,14.9680017 3.77599512,15.2079993 4.752,15.352 C4.86400056,15.3680001 4.9399998,15.4119996 4.98,15.484 C5.0200002,15.5560004 5.04,15.6399995 5.04,15.736 C5.04,15.8320005 5.02400016,15.9599992 4.992,16.12 C4.55999784,16.0879998 4.1040024,16.0600001 3.624,16.036 C3.1439976,16.0119999 2.67200232,16 2.208,16 C1.8879984,16 1.56000168,16.0079999 1.224,16.024 C0.88799832,16.0400001 0.53600184,16.0719998 0.168,16.12 C0.13599984,15.9919994 0.12,15.8640006 0.12,15.736 C0.12,15.6239994 0.1399998,15.5280004 0.18,15.448 C0.2200002,15.3679996 0.30399936,15.3200001 0.432,15.304 C0.92800248,15.2239996 1.29999876,15.1240006 1.548,15.004 C1.79600124,14.8839994 1.97599944,14.6960013 2.088,14.44 L7.872,0.52 C7.98400056,0.24799864 8.13599904,0.112 8.328,0.112 C8.39200032,0.112 8.48799936,0.12799984 8.616,0.16 L14.424,14.512 C14.5200005,14.7360011 14.7359983,14.9119994 15.072,15.04 C15.4080017,15.1680006 15.7359984,15.2559998 16.056,15.304 C16.1520005,15.3360002 16.2279997,15.3799997 16.284,15.436 C16.3400003,15.4920003 16.368,15.5919993 16.368,15.736 C16.368,15.8320005 16.3520002,15.9599992 16.32,16.12 C15.8079974,16.0879998 15.3040025,16.0600001 14.808,16.036 C14.3119975,16.0119999 13.8480022,16 13.416,16 C12.9679978,16 12.4560029,16.0119999 11.88,16.036 C11.3039971,16.0600001 10.7840023,16.0879998 10.32,16.12 C10.2879998,15.9599992 10.272,15.8320005 10.272,15.736 C10.272,15.5919993 10.2999997,15.4920003 10.356,15.436 C10.4120003,15.3799997 10.4639998,15.352 10.512,15.352 C10.9280021,15.2719996 11.2639987,15.1800005 11.52,15.076 C11.7760013,14.9719995 11.904,14.816001 11.904,14.608 C11.904,14.5119995 11.8720003,14.3920007 11.808,14.248 L10.296,10.288 Z M9.912,9.304 L7.68,3.424 L5.352,9.304 L9.912,9.304 Z" opacity="0.7"></path>
    <path d="M16.296,10.288 L10.944,10.288 L9.408,14.152 C9.3279996,14.344001 9.288,14.5039994 9.288,14.632 C9.288,14.9680017 9.77599512,15.2079993 10.752,15.352 C10.8640006,15.3680001 10.9399998,15.4119996 10.98,15.484 C11.0200002,15.5560004 11.04,15.6399995 11.04,15.736 C11.04,15.8320005 11.0240002,15.9599992 10.992,16.12 C10.5599978,16.0879998 10.1040024,16.0600001 9.624,16.036 C9.1439976,16.0119999 8.67200232,16 8.208,16 C7.8879984,16 7.56000168,16.0079999 7.224,16.024 C6.88799832,16.0400001 6.53600184,16.0719998 6.168,16.12 C6.13599984,15.9919994 6.12,15.8640006 6.12,15.736 C6.12,15.6239994 6.1399998,15.5280004 6.18,15.448 C6.2200002,15.3679996 6.30399936,15.3200001 6.432,15.304 C6.92800248,15.2239996 7.29999876,15.1240006 7.548,15.004 C7.79600124,14.8839994 7.97599944,14.6960013 8.088,14.44 L13.872,0.52 C13.9840006,0.24799864 14.135999,0.112 14.328,0.112 C14.3920003,0.112 14.4879994,0.12799984 14.616,0.16 L20.424,14.512 C20.5200005,14.7360011 20.7359983,14.9119994 21.072,15.04 C21.4080017,15.1680006 21.7359984,15.2559998 22.056,15.304 C22.1520005,15.3360002 22.2279997,15.3799997 22.284,15.436 C22.3400003,15.4920003 22.368,15.5919993 22.368,15.736 C22.368,15.8320005 22.3520002,15.9599992 22.32,16.12 C21.8079974,16.0879998 21.3040025,16.0600001 20.808,16.036 C20.3119975,16.0119999 19.8480022,16 19.416,16 C18.9679978,16 18.4560029,16.0119999 17.88,16.036 C17.3039971,16.0600001 16.7840023,16.0879998 16.32,16.12 C16.2879998,15.9599992 16.272,15.8320005 16.272,15.736 C16.272,15.5919993 16.2999997,15.4920003 16.356,15.436 C16.4120003,15.3799997 16.4639998,15.352 16.512,15.352 C16.9280021,15.2719996 17.2639987,15.1800005 17.52,15.076 C17.7760013,14.9719995 17.904,14.816001 17.904,14.608 C17.904,14.5119995 17.8720003,14.3920007 17.808,14.248 L16.296,10.288 Z M15.912,9.304 L13.68,3.424 L11.352,9.304 L15.912,9.304 Z" opacity="0.9"></path>
    <path d="M22.96,10.72 L17.92,10.72 L16.672,14.056 C16.6239998,14.1360004 16.5920001,14.2239995 16.576,14.32 C16.5599999,14.4160005 16.552,14.4879998 16.552,14.536 C16.552,14.7120009 16.6359992,14.8559994 16.804,14.968 C16.9720008,15.0800006 17.3119974,15.1759996 17.824,15.256 C18.0480011,15.2880002 18.16,15.4399986 18.16,15.712 C18.16,15.8240006 18.1440002,15.9599992 18.112,16.12 C17.6799978,16.0879998 17.2240024,16.0600001 16.744,16.036 C16.2639976,16.0119999 15.7920023,16 15.328,16 C15.0079984,16 14.6720018,16.0079999 14.32,16.024 C13.9679982,16.0400001 13.5760022,16.0719998 13.144,16.12 C13.1119998,16.0559997 13.096,15.9840004 13.096,15.904 L13.096,15.712 C13.096,15.4079985 13.199999,15.2480001 13.408,15.232 C13.9040025,15.1359995 14.2599989,15.0320006 14.476,14.92 C14.6920011,14.8079994 14.8639994,14.6160014 14.992,14.344 L20.776,0.52 C20.9040006,0.24799864 21.0959987,0.112 21.352,0.112 C21.4320004,0.112 21.5119996,0.11599996 21.592,0.124 C21.6720004,0.13200004 21.7599995,0.14399992 21.856,0.16 L27.64,14.416 C27.7360005,14.6560012 27.9199986,14.8359994 28.192,14.956 C28.4640014,15.0760006 28.7599984,15.1599998 29.08,15.208 C29.3200012,15.2560002 29.44,15.4159986 29.44,15.688 C29.44,15.8160006 29.4240002,15.9599992 29.392,16.12 C28.8799974,16.0879998 28.3760025,16.0600001 27.88,16.036 C27.3839975,16.0119999 26.9200022,16 26.488,16 C26.2639989,16 25.9920016,16.004 25.672,16.012 C25.3519984,16.02 25.0240017,16.0319999 24.688,16.048 C24.3519983,16.0640001 24.0200016,16.076 23.692,16.084 C23.3639984,16.092 23.0880011,16.1039999 22.864,16.12 C22.8319998,16.0559997 22.816,15.9840004 22.816,15.904 L22.816,15.712 C22.816,15.5679993 22.8439997,15.4600004 22.9,15.388 C22.9560003,15.3159996 23.0159997,15.2720001 23.08,15.256 C23.4960021,15.1759996 23.803999,15.0840005 24.004,14.98 C24.204001,14.8759995 24.304,14.720001 24.304,14.512 C24.304,14.4159995 24.2800002,14.2960007 24.232,14.152 L22.96,10.72 Z M22.504,9.52 L20.464,4.12 L18.376,9.52 L22.504,9.52 Z"></path>
</svg>