<svg width="29" height="19" viewBox="0 0 29 19" version="1.1" xmlns="http://www.w3.org/2000/svg">
  <path d="M11.856,10.008 L12,9.72 L13.392,9.672 C13.8880025,8.69599512 14.4599968,7.85600352 15.108,7.152 C15.7560032,6.44799648 16.4719961,5.84400252 17.256,5.34 C18.0400039,4.83599748 18.8879954,4.41200172 19.8,4.068 C20.7120046,3.72399828 21.6799949,3.42400128 22.704,3.168 L22.704,3.12 C22.2239976,3.12 21.7360025,3.11200008 21.24,3.096 C20.7439975,3.07999992 20.2160028,3.06400008 19.656,3.048 C19.0959972,3.03199992 18.4880033,3.01600008 17.832,3 C17.1759967,2.98399992 16.448004,2.976 15.648,2.976 C14.655995,2.976 13.6400052,3.00399972 12.6,3.06 C11.5599948,3.11600028 10.5480049,3.21999924 9.564,3.372 C8.57999508,3.52400076 7.6480044,3.72799872 6.768,3.984 C5.8879956,4.24000128 5.12400324,4.56399804 4.476,4.956 C3.82799676,5.34800196 3.31200192,5.81199732 2.928,6.348 C2.54399808,6.88400268 2.352,7.51999632 2.352,8.256 C2.352,8.78400264 2.4719988,9.2279982 2.712,9.588 C2.9520012,9.9480018 3.2519982,10.2359989 3.612,10.452 C3.9720018,10.6680011 4.3719978,10.8199996 4.812,10.908 C5.2520022,10.9960004 5.671998,11.04 6.072,11.04 C6.6320028,11.04 7.2519966,10.9520009 7.932,10.776 C8.6120034,10.5999991 9.25599696,10.3400017 9.864,9.996 C10.472003,9.65199828 10.979998,9.2200026 11.388,8.7 C11.796002,8.1799974 12,7.58400336 12,6.912 C12,6.5919984 11.9720003,6.28000152 11.916,5.976 C11.8599997,5.67199848 11.7680006,5.37600144 11.64,5.088 L11.856,4.968 C11.9360004,5.11200072 12.0279995,5.34799836 12.132,5.676 C12.2360005,6.00400164 12.288,6.4479972 12.288,7.008 C12.288,7.808004 12.1000019,8.53599672 11.724,9.192 C11.3479981,9.84800328 10.860003,10.4079977 10.26,10.872 C9.659997,11.3360023 8.99200368,11.6959987 8.256,11.952 C7.51999632,12.2080013 6.7920036,12.336 6.072,12.336 C5.5919976,12.336 5.1120024,12.2480009 4.632,12.072 C4.1519976,11.8959991 3.712002,11.6400017 3.312,11.304 C2.911998,10.9679983 2.58800124,10.5560024 2.34,10.068 C2.09199876,9.57999756 1.968,9.02400312 1.968,8.4 C1.968,7.32799464 2.25599712,6.392004 2.832,5.592 C3.40800288,4.791996 4.15999536,4.10800284 5.088,3.54 C6.01600464,2.97199716 7.06799412,2.50000188 8.244,2.124 C9.42000588,1.74799812 10.603994,1.45200108 11.796,1.236 C12.988006,1.01999892 14.1399944,0.8720004 15.252,0.792 C16.3640056,0.7119996 17.3119961,0.672 18.096,0.672 C19.2160056,0.672 20.2159956,0.67999992 21.096,0.696 C21.9760044,0.71200008 22.7639965,0.73199988 23.46,0.756 C24.1560035,0.78000012 24.7759973,0.80399988 25.32,0.828 C25.8640027,0.85200012 26.3599978,0.864 26.808,0.864 C26.9840009,0.864 27.1839989,0.8839998 27.408,0.924 C27.6320011,0.9640002 27.839999,1.03199952 28.032,1.128 C28.224001,1.22400048 28.3879993,1.34799924 28.524,1.5 C28.6600007,1.65200076 28.728,1.83999888 28.728,2.064 C28.728,2.36800152 28.624001,2.61199908 28.416,2.796 C28.207999,2.98000092 27.9520015,3.11599956 27.648,3.204 C27.3439985,3.29200044 27.0320016,3.34799988 26.712,3.372 C26.3919984,3.39600012 26.1200011,3.408 25.896,3.408 C25.7199991,3.408 25.5200011,3.40000008 25.296,3.384 C25.0719989,3.36799992 24.8480011,3.35200008 24.624,3.336 C24.3999989,3.31999992 24.188001,3.30400008 23.988,3.288 C23.787999,3.27199992 23.6240006,3.264 23.496,3.264 C22.7599963,3.264 22.0560034,3.48799776 21.384,3.936 C20.7119966,4.38400224 20.0880029,4.93199676 19.512,5.58 C18.9359971,6.22800324 18.4240022,6.91599636 17.976,7.644 C17.5279978,8.37200364 17.1440016,9.0159972 16.824,9.576 C17.3360026,9.52799976 17.7719982,9.4640004 18.132,9.384 C18.4920018,9.3039996 18.7599991,9.20800056 18.936,9.096 C19.0160004,9.04799976 19.0999996,8.96000064 19.188,8.832 C19.2760004,8.70399936 19.3679995,8.56800072 19.464,8.424 C19.5600005,8.27999928 19.6599995,8.15200056 19.764,8.04 C19.8680005,7.92799944 19.9759994,7.872 20.088,7.872 L22.728,7.872 C21.6719947,8.73600432 20.6800046,9.66399504 19.752,10.656 C18.8239954,11.648005 17.9920037,12.7199942 17.256,13.872 L17.04,13.896 C17.1840007,13.1599963 17.4079985,12.4480034 17.712,11.76 C18.0160015,11.0719966 18.3279984,10.3840034 18.648,9.696 C18.4239989,9.696 18.1240019,9.72799968 17.748,9.792 C17.3719981,9.85600032 17.0240016,9.89599992 16.704,9.912 C16.0799969,11.1440062 15.3920038,12.2679949 14.64,13.284 C13.8879962,14.3000051 13.0400047,15.1719964 12.096,15.9 C11.1519953,16.6280036 10.0960058,17.191998 8.928,17.592 C7.75999416,17.992002 6.44800728,18.192 4.992,18.192 C4.5119976,18.192 4.0120026,18.1400005 3.492,18.036 C2.9719974,17.9319995 2.49600216,17.7600012 2.064,17.52 C1.63199784,17.2799988 1.2760014,16.964002 0.996,16.572 C0.7159986,16.179998 0.576,15.6960029 0.576,15.12 C0.576,14.8799988 0.62399952,14.6520011 0.72,14.436 C0.81600048,14.2199989 0.93999924,14.0280008 1.092,13.86 C1.24400076,13.6919992 1.42799892,13.5560005 1.644,13.452 C1.86000108,13.3479995 2.0879988,13.296 2.328,13.296 C2.74400208,13.296 3.09999852,13.4199988 3.396,13.668 C3.69200148,13.9160012 3.84,14.2559978 3.84,14.688 C3.84,15.0560018 3.74800092,15.3679987 3.564,15.624 C3.37999908,15.8800013 3.12000168,16.0639994 2.784,16.176 C2.88000048,16.8320033 3.1479978,17.2839988 3.588,17.532 C4.0280022,17.7800012 4.55199696,17.904 5.16,17.904 C6.24800544,17.904 7.18799604,17.6320027 7.98,17.088 C8.77200396,16.5439973 9.47599692,15.872004 10.092,15.072 C10.7080031,14.271996 11.2639975,13.4120046 11.76,12.492 C12.2560025,11.5719954 12.7439976,10.7280038 13.224,9.96 L11.856,10.008 Z"></path>
</svg>
