<svg width="20" height="17" viewBox="0 0 20 17" version="1.1" xmlns="http://www.w3.org/2000/svg">
  <path d="M5.64705882,3.95798319 L9,3.95798319 L8.87394958,5.77310924 C8.40335899,5.6722684 7.90336399,5.60084055 7.37394958,5.55882353 C6.84453517,5.51680651 6.26891067,5.49579832 5.64705882,5.49579832 L5.64705882,14.2941176 C5.64705882,15.0504239 6.01680303,15.4285714 6.75630252,15.4285714 C7.14285908,15.4285714 7.40756231,15.3235305 7.55042017,15.1134454 C7.69327803,14.9033603 7.76470588,14.6302538 7.76470588,14.2941176 L7.76470588,12.8319328 L9,12.8319328 L9,13.9411765 C9,14.3949603 8.95378197,14.8067208 8.86134454,15.1764706 C8.7689071,15.5462203 8.60084155,15.8613432 8.35714286,16.1218487 C8.11344416,16.3823542 7.78991798,16.5882345 7.38655462,16.7394958 C6.98319126,16.8907571 6.47059134,16.9663866 5.8487395,16.9663866 C4.53780857,16.9663866 3.60084315,16.6722718 3.03781513,16.0840336 C2.4747871,15.4957954 2.19327731,14.6722742 2.19327731,13.6134454 L2.19327731,5.49579832 L0,5.49579832 L0,4.28571429 C0.470590588,4.25210067 0.911762647,4.18487445 1.32352941,4.08403361 C1.73529618,3.98319277 2.0966371,3.80672395 2.40756303,3.55462185 C2.71848895,3.30251975 2.96218399,2.9495821 3.13865546,2.49579832 C3.31512693,2.04201454 3.40336134,1.45378513 3.40336134,0.731092437 L3.40336134,0.176470588 L5.64705882,0 L5.64705882,3.95798319 Z M16.6470588,3.95798319 L20,3.95798319 L19.8739496,5.77310924 C19.403359,5.6722684 18.903364,5.60084055 18.3739496,5.55882353 C17.8445352,5.51680651 17.2689107,5.49579832 16.6470588,5.49579832 L16.6470588,14.2941176 C16.6470588,15.0504239 17.016803,15.4285714 17.7563025,15.4285714 C18.1428591,15.4285714 18.4075623,15.3235305 18.5504202,15.1134454 C18.693278,14.9033603 18.7647059,14.6302538 18.7647059,14.2941176 L18.7647059,12.8319328 L20,12.8319328 L20,13.9411765 C20,14.3949603 19.953782,14.8067208 19.8613445,15.1764706 C19.7689071,15.5462203 19.6008416,15.8613432 19.3571429,16.1218487 C19.1134442,16.3823542 18.789918,16.5882345 18.3865546,16.7394958 C17.9831913,16.8907571 17.4705913,16.9663866 16.8487395,16.9663866 C15.5378086,16.9663866 14.6008432,16.6722718 14.0378151,16.0840336 C13.4747871,15.4957954 13.1932773,14.6722742 13.1932773,13.6134454 L13.1932773,5.49579832 L11,5.49579832 L11,4.28571429 C11.4705906,4.25210067 11.9117626,4.18487445 12.3235294,4.08403361 C12.7352962,3.98319277 13.0966371,3.80672395 13.407563,3.55462185 C13.7184889,3.30251975 13.962184,2.9495821 14.1386555,2.49579832 C14.3151269,2.04201454 14.4033613,1.45378513 14.4033613,0.731092437 L14.4033613,0.176470588 L16.6470588,0 L16.6470588,3.95798319 Z"></path>
</svg>