<svg width="9" height="18" viewBox="0 0 9 18" version="1.1" xmlns="http://www.w3.org/2000/svg">
    <path d="M8.203125,0.5 L8.203125,1.19140625 C7.92968613,1.25390656 7.72656316,1.29687488 7.59375,1.3203125 C6.5546823,1.5000009 5.95312582,1.66992107 5.7890625,1.83007812 C5.62499918,1.99023518 5.54296875,2.34765348 5.54296875,2.90234375 L5.54296875,3.3125 L5.49609375,8.0234375 L5.53125,14.8671875 C5.53125,15.4140652 5.61132732,15.761718 5.77148438,15.9101562 C5.93164143,16.0585945 6.48046406,16.1874995 7.41796875,16.296875 C7.59765715,16.3203126 7.85937328,16.3671871 8.203125,16.4375 L8.203125,17.1289062 C6.94530621,17.0429683 5.73438082,17 4.5703125,17 C3.36718148,17 2.04688219,17.0429683 0.609375,17.1289062 L0.609375,16.4375 C0.835938633,16.3749997 1.00781191,16.3359376 1.125,16.3203125 C2.23438055,16.1406241 2.86913982,15.9746101 3.02929688,15.8222656 C3.18945393,15.6699211 3.26953125,15.2851593 3.26953125,14.6679688 L3.2578125,14.0820312 L3.28125,9.78125 C3.28125,5.35935289 3.27343758,2.91406484 3.2578125,2.4453125 C3.24218742,2.18749871 3.15820389,1.98828195 3.00585938,1.84765625 C2.85351486,1.70703055 2.26172391,1.53906348 1.23046875,1.34375 C1.08984305,1.31249984 0.882813867,1.2617191 0.609375,1.19140625 L0.609375,0.5 C2.30469598,0.58593793 3.62890148,0.62890625 4.58203125,0.62890625 C5.64453656,0.62890625 6.85155574,0.58593793 8.203125,0.5 L8.203125,0.5 Z"></path>
</svg>