<svg viewBox="0 0 1150 1024" version="1.1" xmlns="http://www.w3.org/2000/svg" width="1150" height="1024">
  <path d="M576.764851 1023.958097c-10.039798 0.437213-18.18347-2.558848-24.127269-8.472734l-179.149291-178.454351-8.491142-8.636113-45.9189-45.757821-16.660127-16.671633c-6.562801-6.562801-10.175564-15.122977-10.175563-24.092752 0-8.152877 3.069697-15.721269 8.670629-21.3199 9.377074-9.342557 23.763692-11.284705 36.226572-5.025652l63.7549 63.513282 8.491142 8.622306 136.553212 136.023954V149.572963h60.459693v774.127527l150.44739-149.881314 53.537916-53.356127c11.965837-9.38858 29.017155-8.32316 39.91297 2.556547a30.071069 30.071069 0 0 1 8.882333 21.395837 29.753514 29.753514 0 0 1-8.790288 21.21635l-34.783768 34.742347-31.095068 30.968507-184.837666 184.172641c-5.900078 5.88397-14.043751 8.877731-22.907675 8.442819zM0 0h1150.561255v69.033675H0z"></path>
</svg>