<svg viewBox="0 0 1024 1024" version="1.1" xmlns="http://www.w3.org/2000/svg" width="1024" height="1024">
  <path d="M658.285714 658.285714 658.285714 877.714286 877.714286 877.714286 877.714286 658.285714 658.285714 658.285714ZM365.714286 658.285714 365.714286 877.714286 585.142857 877.714286 585.142857 658.285714 365.714286 658.285714ZM73.142857 658.285714 73.142857 877.714286 292.571429 877.714286 292.571429 658.285714 73.142857 658.285714ZM658.285714 365.714286 658.285714 585.142857 877.714286 585.142857 877.714286 365.714286 658.285714 365.714286ZM365.714286 365.714286 365.714286 585.142857 585.142857 585.142857 585.142857 365.714286 365.714286 365.714286ZM73.142857 365.714286 73.142857 585.142857 292.571429 585.142857 292.571429 365.714286 73.142857 365.714286ZM658.285714 73.142857 658.285714 292.571429 877.714286 292.571429 877.714286 73.142857 658.285714 73.142857ZM365.714286 73.142857 365.714286 292.571429 585.142857 292.571429 585.142857 73.142857 365.714286 73.142857ZM73.142857 73.142857 73.142857 292.571429 292.571429 292.571429 292.571429 73.142857 73.142857 73.142857Z"></path>
</svg>