<svg width="18" height="16" viewBox="0 0 18 16" version="1.1" xmlns="http://www.w3.org/2000/svg">
  <path d="M11.176,10.176 L5.824,10.176 L4.288,14.04 C4.2079996,14.232001 4.168,14.3919994 4.168,14.52 C4.168,14.8560017 4.65599512,15.0959993 5.632,15.24 C5.74400056,15.2560001 5.8199998,15.2999996 5.86,15.372 C5.9000002,15.4440004 5.92,15.5279995 5.92,15.624 C5.92,15.7200005 5.90400016,15.8479992 5.872,16.008 C5.43999784,15.9759998 4.9840024,15.9480001 4.504,15.924 C4.0239976,15.8999999 3.55200232,15.888 3.088,15.888 C2.7679984,15.888 2.44000168,15.8959999 2.104,15.912 C1.76799832,15.9280001 1.41600184,15.9599998 1.048,16.008 C1.01599984,15.8799994 1,15.7520006 1,15.624 C1,15.5119994 1.0199998,15.4160004 1.06,15.336 C1.1000002,15.2559996 1.18399936,15.2080001 1.312,15.192 C1.80800248,15.1119996 2.17999876,15.0120006 2.428,14.892 C2.67600124,14.7719994 2.85599944,14.5840013 2.968,14.328 L8.752,0.408 C8.86400056,0.13599864 9.01599904,0 9.208,0 C9.27200032,0 9.36799936,0.01599984 9.496,0.048 L15.304,14.4 C15.4000005,14.6240011 15.6159983,14.7999994 15.952,14.928 C16.2880017,15.0560006 16.6159984,15.1439998 16.936,15.192 C17.0320005,15.2240002 17.1079997,15.2679997 17.164,15.324 C17.2200003,15.3800003 17.248,15.4799993 17.248,15.624 C17.248,15.7200005 17.2320002,15.8479992 17.2,16.008 C16.6879974,15.9759998 16.1840025,15.9480001 15.688,15.924 C15.1919975,15.8999999 14.7280022,15.888 14.296,15.888 C13.8479978,15.888 13.3360029,15.8999999 12.76,15.924 C12.1839971,15.9480001 11.6640023,15.9759998 11.2,16.008 C11.1679998,15.8479992 11.152,15.7200005 11.152,15.624 C11.152,15.4799993 11.1799997,15.3800003 11.236,15.324 C11.2920003,15.2679997 11.3439998,15.24 11.392,15.24 C11.8080021,15.1599996 12.1439987,15.0680005 12.4,14.964 C12.6560013,14.8599995 12.784,14.704001 12.784,14.496 C12.784,14.3999995 12.7520003,14.2800007 12.688,14.136 L11.176,10.176 Z M10.792,9.192 L8.56,3.312 L6.232,9.192 L10.792,9.192 Z"></path>
  <rect x="0" y="9" width="18" height="2"></rect>
</svg>
